<?xml version="1.0" encoding="UTF-8"?>
<svg width="16px" height="21px" viewBox="0 0 16 21" version="1.1" xmlns="http://www.w3.org/2000/svg" xmlns:xlink="http://www.w3.org/1999/xlink">
    <!-- Generator: Sketch 47.1 (45422) - http://www.bohemiancoding.com/sketch -->
    <title>icon-doc</title>
    <desc>Created with Sketch.</desc>
    <defs></defs>
    <g id="ioGates-Desktop" stroke="none" stroke-width="1" fill="none" fill-rule="evenodd">
        <g id="Video-View-Copy" transform="translate(-143.000000, -194.000000)" fill-rule="nonzero" fill="#88A2AA">
            <g id="Group-7" transform="translate(143.000000, 164.000000)">
                <g id="Group-5" transform="translate(0.000000, 30.000000)">
                    <path d="M9.94594595,6.05405405 C9.70712011,6.05405405 9.51351351,5.86044746 9.51351351,5.62162162 L9.51351351,1.04397838 C9.51353337,0.869096607 9.6188853,0.711442485 9.78045373,0.644515102 C9.94202217,0.577587719 10.1279969,0.614563991 10.2516757,0.738205405 L14.8293622,5.31589189 C14.952998,5.43956508 14.989977,5.62552935 14.9230607,5.78709386 C14.8561445,5.94865838 14.6985063,6.05401671 14.5236324,6.05405405 L9.94594595,6.05405405 Z M15.5675676,8.21621622 L15.5675676,19.4594595 C15.5675676,20.175937 14.9867478,20.7567568 14.2702703,20.7567568 L1.2972973,20.7567568 C0.580819784,20.7567568 0,20.175937 0,19.4594595 L0,1.2972973 C0,0.580819784 0.580819784,0 1.2972973,0 L7.35135135,0 C8.06782886,0 8.64864865,0.580819784 8.64864865,1.2972973 L8.64864865,5.62162162 C8.64864865,6.33809913 9.22946843,6.91891892 9.94594595,6.91891892 L14.2702703,6.91891892 C14.6143424,6.91891892 14.9443216,7.055604 15.1876133,7.29890379 C15.430905,7.54220358 15.567579,7.87218733 15.5675676,8.21625946 L15.5675676,8.21621622 Z" id="icon-doc"></path>
                </g>
            </g>
        </g>
    </g>
</svg>