<?xml version="1.0" encoding="UTF-8"?>
<svg width="17px" height="16px" viewBox="0 0 17 16" version="1.1" xmlns="http://www.w3.org/2000/svg" xmlns:xlink="http://www.w3.org/1999/xlink">
    <!-- Generator: Sketch 47.1 (45422) - http://www.bohemiancoding.com/sketch -->
    <title>download</title>
    <desc>Created with Sketch.</desc>
    <defs></defs>
    <g id="ioGates-Desktop" stroke="none" stroke-width="1" fill="none" fill-rule="evenodd">
        <g id="Video-View-Copy" transform="translate(-597.000000, -191.000000)" fill-rule="nonzero" fill="#646464">
            <g id="Group-12-Copy" transform="translate(589.000000, 183.000000)">
                <path d="M23.2380952,8 L17.1428571,8 L17.1428571,17.5893333 L18.8899048,15.8422857 C19.1878095,15.544381 19.6693333,15.544381 19.9672381,15.8422857 C20.2651429,16.1401905 20.2651429,16.6217143 19.9672381,16.919619 L16.919619,19.9672381 C16.7710476,20.1158095 16.576,20.1904762 16.3809524,20.1904762 C16.1859048,20.1904762 15.9908571,20.1158095 15.8422857,19.9672381 L12.7946667,16.919619 C12.4967619,16.6217143 12.4967619,16.1401905 12.7946667,15.8422857 C13.0925714,15.544381 13.5740952,15.544381 13.872,15.8422857 L15.6190476,17.5893333 L15.6190476,8 L9.52380952,8 C8.68190476,8 8,8.68190476 8,9.52380952 L8,22.4761905 C8,23.3180952 8.68190476,24 9.52380952,24 L23.2380952,24 C24.08,24 24.7619048,23.3180952 24.7619048,22.4761905 L24.7619048,9.52380952 C24.7619048,8.68190476 24.08,8 23.2380952,8 Z" id="download"></path>
            </g>
        </g>
    </g>
</svg>