<?xml version="1.0" encoding="UTF-8"?>
<svg width="17px" height="17px" viewBox="0 0 17 17" version="1.1" xmlns="http://www.w3.org/2000/svg" xmlns:xlink="http://www.w3.org/1999/xlink">
    <!-- Generator: Sketch 47.1 (45422) - http://www.bohemiancoding.com/sketch -->
    <title>download-white</title>
    <desc>Created with Sketch.</desc>
    <defs></defs>
    <g id="ioGates-Desktop" stroke="none" stroke-width="1" fill="none" fill-rule="evenodd">
        <g id="File-View" transform="translate(-103.000000, -413.000000)" fill-rule="nonzero" fill="#FFFFFF">
            <g id="Group-9" transform="translate(87.000000, 389.000000)">
                <path d="M31.3333337,24 L25.2000002,24 L25.2000002,33.6492669 L26.9579669,31.8913002 C27.2577336,31.5915335 27.7422669,31.5915335 28.0420336,31.8913002 C28.3418003,32.1910669 28.3418003,32.6756002 28.0420336,32.9753669 L24.9753669,36.0420336 C24.8258669,36.1915336 24.6296002,36.266667 24.4333335,36.266667 C24.2370669,36.266667 24.0408002,36.1915336 23.8913002,36.0420336 L20.8246334,32.9753669 C20.5248668,32.6756002 20.5248668,32.1910669 20.8246334,31.8913002 C21.1244001,31.5915335 21.6089335,31.5915335 21.9087001,31.8913002 L23.6666668,33.6492669 L23.6666668,24 L17.5333334,24 C16.6861667,24 16,24.6861667 16,25.5333334 L16,38.566667 C16,39.4138337 16.6861667,40.1000004 17.5333334,40.1000004 L31.3333337,40.1000004 C32.1805004,40.1000004 32.8666671,39.4138337 32.8666671,38.566667 L32.8666671,25.5333334 C32.8666671,24.6861667 32.1805004,24 31.3333337,24 Z" id="download-white"></path>
            </g>
        </g>
    </g>
</svg>