<?xml version="1.0" encoding="UTF-8"?>
<svg width="16px" height="14px" viewBox="0 0 16 14" version="1.1" xmlns="http://www.w3.org/2000/svg" xmlns:xlink="http://www.w3.org/1999/xlink">
    <!-- Generator: Sketch 47.1 (45422) - http://www.bohemiancoding.com/sketch -->
    <title>folder</title>
    <desc>Created with Sketch.</desc>
    <defs></defs>
    <g id="ioGates-Desktop" stroke="none" stroke-width="1" fill="none" fill-rule="evenodd">
        <g id="File-View-Copy" transform="translate(-112.000000, -160.000000)" fill-rule="nonzero" fill="#495867">
            <g id="Group-8" transform="translate(96.000000, 72.000000)">
                <g id="Group-2" transform="translate(16.000000, 75.000000)">
                    <g id="Icon-/-Folder-/-Dark" transform="translate(0.000000, 13.000000)">
                        <path d="M15.6693255,5.74395094 L15.1392031,12.6261387 C15.0995542,13.1368304 14.6734397,13.5309199 14.1612112,13.5306285 L1.51001125,13.5306285 C0.997788994,13.5309041 0.571683512,13.136823 0.532019409,12.6261387 L0.00189695988,5.74395094 C-0.0119561771,5.56245122 0.0505244441,5.38339896 0.174289505,5.24992137 C0.298054566,5.11644377 0.471885701,5.04063958 0.653913286,5.04076727 L15.0172766,5.04076727 C15.1993035,5.04065013 15.3731314,5.11645631 15.4968993,5.24993033 C15.6206672,5.38340435 15.683159,5.56245038 15.6693255,5.74395094 Z M15.0192684,3.08161625 L15.0192684,4.06120808 C15.0192684,4.24154596 14.8730757,4.38773869 14.6927378,4.38773869 L0.978452062,4.38773869 C0.798114184,4.38773869 0.65192145,4.24154596 0.65192145,4.06120808 L0.65192145,1.12243257 C0.65192145,0.761756817 0.944306919,0.469371348 1.30498267,0.469371348 L5.00881941,0.469371348 C5.35525014,0.469367385 5.68749139,0.606992738 5.9324439,0.851967266 L7.12646839,2.04605706 C7.37144581,2.29098636 7.70367652,2.42858385 8.05009288,2.42858767 L14.3661745,2.42858767 C14.5393771,2.42857901 14.7054892,2.49737518 14.8279681,2.61984179 C14.950447,2.7423084 15.0192597,2.90841364 15.0192684,3.08161625 Z" id="Shape"></path>
                    </g>
                </g>
            </g>
        </g>
    </g>
</svg>