<?xml version="1.0" encoding="UTF-8"?>
<svg width="17px" height="4px" viewBox="0 0 17 4" version="1.1" xmlns="http://www.w3.org/2000/svg" xmlns:xlink="http://www.w3.org/1999/xlink">
    <!-- Generator: Sketch 47.1 (45422) - http://www.bohemiancoding.com/sketch -->
    <title>hdots</title>
    <desc>Created with Sketch.</desc>
    <defs></defs>
    <g id="ioGates-Desktop" stroke="none" stroke-width="1" fill="none" fill-rule="evenodd">
        <g id="Video-View-Copy" transform="translate(-600.000000, -134.000000)" fill-rule="nonzero" fill="#646464">
            <g id="Group-20" transform="translate(143.000000, 100.000000)">
                <g id="Group-19" transform="translate(0.000000, 24.000000)">
                    <path d="M474,12 C474,13.1045695 473.09391,14 471.97619,14 C470.858471,14 469.952381,13.1045695 469.952381,12 C469.952381,10.8954305 470.858471,10 471.97619,10 C473.09391,10 474,10.8954305 474,12 L474,12 Z M467.52381,12 C467.52381,13.1045695 466.617719,14 465.5,14 C464.382281,14 463.47619,13.1045695 463.47619,12 C463.47619,10.8954305 464.382281,10 465.5,10 C466.036755,9.99998939 466.551529,10.2106984 466.931076,10.5857723 C467.310622,10.9608462 467.52385,11.4695601 467.52385,12 L467.52381,12 Z M459.02381,10 C460.141529,10 461.047619,10.8954305 461.047619,12 C461.047619,13.1045695 460.141529,14 459.02381,14 C457.90609,14 457,13.1045695 457,12 C457.000022,10.8954617 457.906082,10.0000621 459.023769,10.00004 L459.02381,10 Z" id="hdots"></path>
                </g>
            </g>
        </g>
    </g>
</svg>