<?xml version="1.0" encoding="UTF-8"?>
<svg width="4px" height="16px" viewBox="0 0 4 16" version="1.1" xmlns="http://www.w3.org/2000/svg" xmlns:xlink="http://www.w3.org/1999/xlink">
    <!-- Generator: Sketch 47.1 (45422) - http://www.bohemiancoding.com/sketch -->
    <title>icon-vdots</title>
    <desc>Created with Sketch.</desc>
    <defs></defs>
    <g id="ioGates-Desktop" stroke="none" stroke-width="1" fill="none" fill-rule="evenodd">
        <g id="File-View" transform="translate(-640.000000, -97.000000)" fill-rule="nonzero" fill="#646464">
            <g id="Group-8" transform="translate(96.000000, 72.000000)">
                <path d="M545.860465,40.627907 C544.832959,40.627907 544,39.7949484 544,38.7674419 C544,37.7399353 544.832959,36.9069767 545.860465,36.9069767 C546.887972,36.9069767 547.72093,37.7399353 547.72093,38.7674419 C547.72093,39.7949484 546.887972,40.627907 545.860465,40.627907 L545.860465,40.627907 Z M545.860465,28.7209302 C544.832959,28.7209302 544,27.8879716 544,26.8604651 C544,25.8329586 544.832959,25 545.860465,25 C546.887972,25 547.72093,25.8329586 547.72093,26.8604651 C547.72094,27.3538976 547.524932,27.8271237 547.176026,28.1760367 C546.82712,28.5249496 546.353898,28.7209674 545.860465,28.7209674 L545.860465,28.7209302 Z M545.860465,34.6744186 C544.832959,34.6744186 544,33.84146 544,32.8139535 C544,31.786447 544.832959,30.9534884 545.860465,30.9534884 C546.887972,30.9534884 547.72093,31.786447 547.72093,32.8139535 C547.72093,33.84146 546.887972,34.6744186 545.860465,34.6744186 L545.860465,34.6744186 Z" id="icon-vdots"></path>
            </g>
        </g>
    </g>
</svg>