<?xml version="1.0" encoding="UTF-8"?>
<svg width="16px" height="16px" viewBox="0 0 16 16" version="1.1" xmlns="http://www.w3.org/2000/svg" xmlns:xlink="http://www.w3.org/1999/xlink">
    <!-- Generator: Sketch 47.1 (45422) - http://www.bohemiancoding.com/sketch -->
    <title>Inbox</title>
    <desc>Created with Sketch.</desc>
    <defs></defs>
    <g id="ioGates-Desktop" stroke="none" stroke-width="1" fill="none" fill-rule="evenodd">
        <g id="File-View-Copy" transform="translate(-32.000000, -89.000000)" fill-rule="nonzero" fill="#ECC30B">
            <g id="Sidebar" transform="translate(-1.000000, 0.000000)">
                <path d="M47.181657,104.999818 L34.8181612,104.999818 C33.8140185,104.999818 33,104.1858 33,103.181657 L33,100.391725 C32.9999881,100.07026 33.021283,99.7491479 33.0637447,99.4304996 L34.2442404,90.577873 C34.3646767,89.6745749 35.1352192,88.9999712 36.0465108,89 L45.9535982,89 C46.8648622,89.0000077 47.6353633,89.6746023 47.7557959,90.577873 L48.9361098,99.4304996 C48.9786739,99.7491393 49.0000176,100.070255 49,100.391725 L49,103.181693 C48.9999903,103.663925 48.8084054,104.1264 48.4673958,104.467368 C48.1263861,104.808337 47.6638885,104.999866 47.181657,104.999818 Z M47.4774718,99.4972625 L46.3138487,90.770089 C46.2897577,90.5894571 46.1356841,90.4545514 45.9534528,90.4545289 L36.0464381,90.4545289 C35.8642206,90.4545696 35.7101677,90.5894708 35.6860786,90.770089 L34.5224554,99.4972625 C34.508598,99.6011642 34.5402515,99.7059918 34.6092978,99.78486 C34.6783441,99.8637283 34.778066,99.9089645 34.8828877,99.9089669 L37.4654038,99.9089669 C37.6219271,99.9089658 37.760889,100.009126 37.8103817,100.157619 L38.3719026,101.842109 C38.4213953,101.990601 38.5603572,102.090761 38.7168805,102.09076 L43.2835195,102.09076 C43.4400428,102.090761 43.5790047,101.990601 43.6284974,101.842109 L44.1900183,100.157619 C44.239511,100.009126 44.3784729,99.9089658 44.5349962,99.9089669 L47.1173668,99.9089669 C47.2221632,99.9089226 47.3218454,99.8636683 47.3908592,99.7848053 C47.459873,99.7059424 47.4915077,99.601139 47.4776537,99.4972625 L47.4774718,99.4972625 Z" id="Inbox"></path>
            </g>
        </g>
    </g>
</svg>