<?xml version="1.0" encoding="UTF-8"?>
<svg width="125px" height="64px" viewBox="0 0 125 64" version="1.1" xmlns="http://www.w3.org/2000/svg" xmlns:xlink="http://www.w3.org/1999/xlink">
    <!-- Generator: Sketch 47.1 (45422) - http://www.bohemiancoding.com/sketch -->
    <title>io</title>
    <desc>Created with Sketch.</desc>
    <defs></defs>
    <g id="ioGates-Desktop" stroke="none" stroke-width="1" fill="none" fill-rule="evenodd">
        <g id="Log-in:-Link" transform="translate(-109.000000, -200.000000)" fill="#495867">
            <g id="io" transform="translate(109.000000, 200.000000)">
                <path d="M4,0 L56.4088829,0 C58.6180219,-4.05812251e-16 60.4088829,1.790861 60.4088829,4 L60.4088829,59.503876 C60.4088829,61.713015 58.6180219,63.503876 56.4088829,63.503876 L4,63.503876 C1.790861,63.503876 2.705415e-16,61.713015 0,59.503876 L0,4 L0,4 C-2.705415e-16,1.790861 1.790861,3.95852593e-15 4,3.55271368e-15 L4,0 Z M26.4288863,11.9069767 L26.4288863,51.5968992 L33.9799966,51.5968992 L33.9799966,11.9069767 L26.4288863,11.9069767 Z" id="Rectangle-1"></path>
                <path d="M68.184438,0 L120.593321,0 L120.593321,-4.4408921e-16 C122.80246,-4.77412063e-15 124.593321,1.790861 124.593321,4 L124.593321,59.503876 L124.593321,59.503876 C124.593321,61.713015 122.80246,63.503876 120.593321,63.503876 L68.184438,63.503876 C65.975299,63.503876 64.184438,61.713015 64.184438,59.503876 L64.184438,4 L64.184438,4 C64.184438,1.790861 65.975299,3.95852593e-15 68.184438,3.55271368e-15 L68.184438,0 Z M94.3888795,51.5968992 C104.814787,51.5968992 113.266655,42.7120074 113.266655,31.751938 C113.266655,20.7918685 104.814787,11.9069767 94.3888795,11.9069767 C83.9629717,11.9069767 75.5111036,20.7918685 75.5111036,31.751938 C75.5111036,42.7120074 83.9629717,51.5968992 94.3888795,51.5968992 Z M94.3888795,43.6589147 C88.1333348,43.6589147 83.0622139,38.3279797 83.0622139,31.751938 C83.0622139,25.1758963 88.1333348,19.8449612 94.3888795,19.8449612 C100.644424,19.8449612 105.715545,25.1758963 105.715545,31.751938 C105.715545,38.3279797 100.644424,43.6589147 94.3888795,43.6589147 Z" id="Path-Copy"></path>
            </g>
        </g>
    </g>
</svg>