<?xml version="1.0" encoding="UTF-8"?>
<svg width="34px" height="17px" viewBox="0 0 34 17" version="1.1" xmlns="http://www.w3.org/2000/svg" xmlns:xlink="http://www.w3.org/1999/xlink">
    <!-- Generator: Sketch 47.1 (45422) - http://www.bohemiancoding.com/sketch -->
    <title>Logo</title>
    <desc>Created with Sketch.</desc>
    <defs></defs>
    <g id="ioGates-Desktop" stroke="none" stroke-width="1" fill="none" fill-rule="evenodd">
        <g id="File-View-Copy" transform="translate(-23.000000, -42.000000)" fill="#646464">
            <g id="Sidebar" transform="translate(-1.000000, 0.000000)">
                <g id="Logo" transform="translate(24.000000, 42.000000)">
                    <g id="ioGates-Logo-(White)">
                        <path d="M4,0 L12.0461095,0 C14.2552485,-4.05812251e-16 16.0461095,1.790861 16.0461095,4 L16.0461095,12.8682171 C16.0461095,15.0773561 14.2552485,16.8682171 12.0461095,16.8682171 L4,16.8682171 L4,16.8682171 C1.790861,16.8682171 1.25159629e-15,15.0773561 0,12.8682171 L0,4 L0,4 C-2.705415e-16,1.790861 1.790861,4.05812251e-16 4,0 L4,0 Z M7.02017291,3.1627907 L7.02017291,13.7054264 L9.0259366,13.7054264 L9.0259366,3.1627907 L7.02017291,3.1627907 Z" id="Rectangle-1"></path>
                        <path d="M21.0489914,0 L29.0951009,0 C31.3042399,-4.05812251e-16 33.0951009,1.790861 33.0951009,4 L33.0951009,12.8682171 C33.0951009,15.0773561 31.3042399,16.8682171 29.0951009,16.8682171 L21.0489914,16.8682171 L21.0489914,16.8682171 C18.8398524,16.8682171 17.0489914,15.0773561 17.0489914,12.8682171 L17.0489914,4 L17.0489914,4 C17.0489914,1.790861 18.8398524,4.05812251e-16 21.0489914,0 L21.0489914,0 Z M25.0720461,13.7054264 C27.8414279,13.7054264 30.0864553,11.345377 30.0864553,8.43410853 C30.0864553,5.52284008 27.8414279,3.1627907 25.0720461,3.1627907 C22.3026644,3.1627907 20.0576369,5.52284008 20.0576369,8.43410853 C20.0576369,11.345377 22.3026644,13.7054264 25.0720461,13.7054264 Z M25.0720461,11.5968992 C23.4104171,11.5968992 22.0634006,10.1808696 22.0634006,8.43410853 C22.0634006,6.68734746 23.4104171,5.27131783 25.0720461,5.27131783 C26.7336752,5.27131783 28.0806916,6.68734746 28.0806916,8.43410853 C28.0806916,10.1808696 26.7336752,11.5968992 25.0720461,11.5968992 Z" id="Path-Copy"></path>
                    </g>
                </g>
            </g>
        </g>
    </g>
</svg>