<?xml version="1.0" encoding="UTF-8"?>
<svg width="16px" height="11px" viewBox="0 0 16 11" version="1.1" xmlns="http://www.w3.org/2000/svg" xmlns:xlink="http://www.w3.org/1999/xlink">
    <!-- Generator: Sketch 47.1 (45422) - http://www.bohemiancoding.com/sketch -->
    <title>reveal</title>
    <desc>Created with Sketch.</desc>
    <defs></defs>
    <g id="ioGates-Desktop" stroke="none" stroke-width="1" fill="none" fill-rule="evenodd">
        <g id="Group-14" transform="translate(-510.000000, -192.000000)" fill-rule="nonzero" fill="#646464">
            <g id="Group-12" transform="translate(502.000000, 181.000000)">
                <path d="M15.9999732,21.6617796 C11.1102146,21.6617796 8.6814945,17.7727955 8.07693828,16.638149 C7.97435391,16.4461532 7.97435391,16.2156264 8.07693828,16.0236306 C8.6814945,14.8889841 11.1102146,11 15.9999732,11 C20.8897319,11 23.318452,14.8889841 23.9230082,16.0236306 C24.0256639,16.2156085 24.0256639,16.4461711 23.9230082,16.638149 C23.318452,17.7727955 20.8897319,21.6617796 15.9999732,21.6617796 Z M16.0050043,12.6659031 C13.9809097,12.6659951 12.3401228,14.3069063 12.3401841,16.3310008 C12.3402455,18.3550954 13.9811318,19.9959072 16.0052264,19.9958765 C18.029321,19.9958459 19.6701576,18.3549844 19.6701576,16.3308898 C19.6702283,15.3587998 19.2841052,14.4265024 18.5967432,13.7391216 C17.9093811,13.0517408 16.9770942,12.6655923 16.0050043,12.6656365 L16.0050043,12.6659031 Z M16.0050043,18.6633873 C14.7169303,18.6633873 13.67274,17.619197 13.67274,16.331123 C13.67274,15.043049 14.7169303,13.9988587 16.0050043,13.9988587 C17.2930783,13.9988587 18.3372685,15.043049 18.3372685,16.331123 C18.3371949,17.619145 17.2930262,18.663254 16.0050043,18.663254 L16.0050043,18.6633873 Z" id="reveal"></path>
            </g>
        </g>
    </g>
</svg>