<?xml version="1.0" encoding="UTF-8"?>
<svg width="16px" height="16px" viewBox="0 0 16 16" version="1.1" xmlns="http://www.w3.org/2000/svg" xmlns:xlink="http://www.w3.org/1999/xlink">
    <!-- Generator: Sketch 47.1 (45422) - http://www.bohemiancoding.com/sketch -->
    <title>search</title>
    <desc>Created with Sketch.</desc>
    <defs></defs>
    <g id="ioGates-Desktop" stroke="none" stroke-width="1" fill="none" fill-rule="evenodd">
        <g id="File-View-Copy" transform="translate(-641.000000, -28.000000)" fill-rule="nonzero" fill="#5C5C5C">
            <g id="Group-3" transform="translate(633.000000, 20.000000)">
                <path d="M14.6260601,8.00000633 C17.1294585,7.99655221 19.420452,9.40623018 20.5457418,11.6424633 C21.6710316,13.8786964 21.4379112,16.5585281 19.9433834,18.5668614 L23.5202668,21.5922748 C23.9114399,21.9260988 24.082206,22.4511885 23.9622227,22.9512474 C23.8422393,23.4513063 23.4518035,23.8417421 22.9517446,23.9617254 C22.4516858,24.0817088 21.926596,23.9109427 21.592772,23.5197696 L18.5666263,19.9434442 C16.255067,21.6566523 13.1017946,21.6813713 10.7636608,20.0046128 C8.42552705,18.3278543 7.43750591,15.3332671 8.31874206,12.5943237 C9.19997821,9.85538022 11.7488415,7.99876119 14.6260601,8.00000633 Z M14.6260601,19.8565774 C17.5149733,19.8565774 19.8569002,17.5146505 19.8569002,14.6257372 C19.8569002,11.736824 17.5149733,9.39489704 14.6260601,9.39489704 C11.7371468,9.39489704 9.39521989,11.736824 9.39521989,14.6257372 C9.39523915,17.5146368 11.7371604,19.8565425 14.6260601,19.8565425 L14.6260601,19.8565774 Z" id="search"></path>
            </g>
        </g>
    </g>
</svg>