<?xml version="1.0" encoding="UTF-8"?>
<svg width="16px" height="16px" viewBox="0 0 16 16" version="1.1" xmlns="http://www.w3.org/2000/svg" xmlns:xlink="http://www.w3.org/1999/xlink">
    <!-- Generator: Sketch 47.1 (45422) - http://www.bohemiancoding.com/sketch -->
    <title>share-event</title>
    <desc>Created with Sketch.</desc>
    <defs></defs>
    <g id="ioGates-Desktop" stroke="none" stroke-width="1" fill="none" fill-rule="evenodd">
        <g id="Video-View-Copy" transform="translate(-143.000000, -128.000000)" fill-rule="nonzero" fill="#DF522A">
            <g id="Group-20" transform="translate(143.000000, 100.000000)">
                <g id="Group-19" transform="translate(0.000000, 24.000000)">
                    <path d="M7.00373355,13.999716 L7.00373355,12.3390673 C7.00148725,12.2120487 6.92909719,12.0967138 6.81568424,12.0394592 C6.70227129,11.9822045 6.56647905,11.992442 6.46293364,12.0660534 L3.13823414,14.3954212 C3.04914795,14.4577961 2.99609395,14.5597051 2.99609395,14.6684518 C2.99609395,14.7771985 3.04914795,14.8791075 3.13823414,14.9414824 L6.46293364,17.2708835 C6.56647418,17.3444917 6.70225921,17.3547322 6.81566981,17.2974857 C6.92908041,17.2402392 7.00147514,17.1249155 7.00373355,16.9979029 L7.00373355,15.3329879 L14.8637324,15.3329879 C14.9519737,15.333476 15.0334933,15.3802077 15.0784997,15.4561049 C15.123506,15.5320021 15.1254036,15.6259423 15.083499,15.7035949 C13.3793803,18.9683809 9.66539103,20.6468147 6.08867302,19.7685554 C2.51195502,18.8902961 -0.00207488445,15.6825789 1.28496827e-06,11.9998581 C0.00140853781,11.4352574 0.0637019869,10.8724547 0.185801257,10.3212108 C0.229490594,10.1320686 0.398604235,9.9985797 0.592734528,10.0000003 L8.99666658,10.0000003 L8.99666658,11.6606489 C8.99888598,11.7876726 9.07126339,11.9030241 9.18467628,11.9602892 C9.29808916,12.0175544 9.43388871,12.0073169 9.53743317,11.9336962 L12.862166,9.60426173 C12.9512245,9.54188311 13.0042586,9.43999065 13.0042586,9.33126446 C13.0042586,9.22253828 12.9512245,9.12064582 12.862166,9.0582672 L9.53743317,6.72883277 C9.43388871,6.65521198 9.29808916,6.64497454 9.18467628,6.70223968 C9.07126339,6.75950483 8.99888598,6.87485629 8.99666658,7.00188003 L8.99666658,8.6667617 L1.13666778,8.6667617 C1.04841112,8.66630993 0.966856954,8.61960808 0.921804545,8.54372063 C0.876752136,8.46783318 0.874802421,8.37387892 0.916667812,8.29618804 C2.62083013,5.03154201 6.3347214,3.35321172 9.91133987,4.23144046 C13.4879583,5.1096692 16.0019597,8.31724124 15.9999989,11.9998581 C15.9986247,12.5644424 15.9363761,13.1272329 15.8143322,13.6784721 C15.7706338,13.8676134 15.6015306,14.0011079 15.4073989,13.999716 L7.00373355,13.999716 Z" id="share-event"></path>
                </g>
            </g>
        </g>
    </g>
</svg>