<?xml version="1.0" encoding="UTF-8"?>
<svg width="16px" height="14px" viewBox="0 0 16 14" version="1.1" xmlns="http://www.w3.org/2000/svg" xmlns:xlink="http://www.w3.org/1999/xlink">
    <!-- Generator: Sketch 47.1 (45422) - http://www.bohemiancoding.com/sketch -->
    <title>share-icon</title>
    <desc>Created with Sketch.</desc>
    <defs></defs>
    <g id="ioGates-Desktop" stroke="none" stroke-width="1" fill="none" fill-rule="evenodd">
        <g id="File-View" transform="translate(-120.000000, -98.000000)" fill-rule="nonzero" fill="#1C77C3">
            <g id="Group-8" transform="translate(96.000000, 72.000000)">
                <g id="Group-7" transform="translate(16.000000, 16.000000)">
                    <g id="Group-4">
                        <path d="M23.6693255,15.2745796 L23.1392031,22.1567673 C23.0995542,22.6674591 22.6734397,23.0615485 22.1612112,23.0612571 L9.51001125,23.0612571 C8.99778899,23.0615327 8.57168351,22.6674517 8.53201941,22.1567673 L8.00189696,15.2745796 C7.98804382,15.0930799 8.05052444,14.9140276 8.1742895,14.78055 C8.29805457,14.6470724 8.4718857,14.5712682 8.65391329,14.5713959 L23.0172766,14.5713959 C23.1993035,14.5712788 23.3731314,14.647085 23.4968993,14.780559 C23.6206672,14.914033 23.683159,15.093079 23.6693255,15.2745796 Z M23.0192684,12.6122449 L23.0192684,13.5918367 C23.0192684,13.7721746 22.8730757,13.9183673 22.6927378,13.9183673 L8.97845206,13.9183673 C8.79811418,13.9183673 8.65192145,13.7721746 8.65192145,13.5918367 L8.65192145,10.6530612 C8.65192145,10.2923855 8.94430692,10 9.30498267,10 L13.0088194,10 C13.3552501,9.99999604 13.6874914,10.1376214 13.9324439,10.3825959 L15.1264684,11.5766857 C15.3714458,11.821615 15.7036765,11.9592125 16.0500929,11.9592163 L22.3661745,11.9592163 C22.5393771,11.9592077 22.7054892,12.0280038 22.8279681,12.1504704 C22.950447,12.2729371 23.0192597,12.4390423 23.0192684,12.6122449 Z" id="share-icon"></path>
                    </g>
                </g>
            </g>
        </g>
    </g>
</svg>