<?xml version="1.0" encoding="UTF-8"?>
<svg width="16px" height="9px" viewBox="0 0 16 9" version="1.1" xmlns="http://www.w3.org/2000/svg" xmlns:xlink="http://www.w3.org/1999/xlink">
    <!-- Generator: Sketch 47.1 (45422) - http://www.bohemiancoding.com/sketch -->
    <title>skip-forward</title>
    <desc>Created with Sketch.</desc>
    <defs></defs>
    <g id="ioGates-Desktop" stroke="none" stroke-width="1" fill="none" fill-rule="evenodd">
        <g id="Video-View" transform="translate(-610.000000, -29.000000)" fill-rule="nonzero" fill="#646464">
            <g id="Group-14-Copy" transform="translate(559.000000, 21.000000)">
                <path d="M52.0393641,8.09889615 L57.9234949,11.6701308 L57.9234949,8.71979231 C57.9148106,8.46820723 58.0435982,8.23179594 58.2596855,8.10265757 C58.4757729,7.9735192 58.7449837,7.97207828 58.962441,8.09889615 L64.850968,11.6726923 L64.850968,8.69230769 C64.850968,8.30995671 65.1609247,8 65.5432756,8 C65.9256266,8 66.2355833,8.30995671 66.2355833,8.69230769 L66.2355833,16.3076923 C66.2355833,16.6900433 65.9256266,17 65.5432756,17 C65.1609247,17 64.850968,16.6900433 64.850968,16.3076923 L64.850968,13.3271 L58.962441,16.9010346 C58.744959,17.0278428 58.4757302,17.0263775 58.2596414,16.8972094 C58.0435526,16.7680414 57.9147814,16.5316006 57.9234949,16.28 L57.9234949,13.3298692 L52.0393641,16.9010346 C51.821885,17.0278675 51.5526428,17.0264143 51.3365455,16.8972412 C51.1204482,16.7680681 50.9916813,16.5316096 51.000418,16.28 L51.000418,8.71979231 C50.9917337,8.46820723 51.1205212,8.23179594 51.3366086,8.10265757 C51.552696,7.9735192 51.8219068,7.97207828 52.0393641,8.09889615 Z" id="skip-forward"></path>
            </g>
        </g>
    </g>
</svg>