<?xml version="1.0" encoding="UTF-8"?>
<svg width="16px" height="9px" viewBox="0 0 16 9" version="1.1" xmlns="http://www.w3.org/2000/svg" xmlns:xlink="http://www.w3.org/1999/xlink">
    <!-- Generator: Sketch 47.1 (45422) - http://www.bohemiancoding.com/sketch -->
    <title>skip-back</title>
    <desc>Created with Sketch.</desc>
    <defs></defs>
    <g id="ioGates-Desktop" stroke="none" stroke-width="1" fill="none" fill-rule="evenodd">
        <g id="Video-View" transform="translate(-571.000000, -29.000000)" fill-rule="nonzero" fill="#646464">
            <g id="Group-14-Copy" transform="translate(559.000000, 21.000000)">
                <path d="M13.0393641,8.09889615 L18.9234949,11.6701308 L18.9234949,8.71979231 C18.9148106,8.46820723 19.0435982,8.23179594 19.2596855,8.10265757 C19.4757729,7.9735192 19.7449837,7.97207828 19.962441,8.09889615 L25.850968,11.6726923 L25.850968,8.69230769 C25.850968,8.30995671 26.1609247,8 26.5432756,8 C26.9256266,8 27.2355833,8.30995671 27.2355833,8.69230769 L27.2355833,16.3076923 C27.2355833,16.6900433 26.9256266,17 26.5432756,17 C26.1609247,17 25.850968,16.6900433 25.850968,16.3076923 L25.850968,13.3271 L19.962441,16.9010346 C19.744959,17.0278428 19.4757302,17.0263775 19.2596414,16.8972094 C19.0435526,16.7680414 18.9147814,16.5316006 18.9234949,16.28 L18.9234949,13.3298692 L13.0393641,16.9010346 C12.821885,17.0278675 12.5526428,17.0264143 12.3365455,16.8972412 C12.1204482,16.7680681 11.9916813,16.5316096 12.000418,16.28 L12.000418,8.71979231 C11.9917337,8.46820723 12.1205212,8.23179594 12.3366086,8.10265757 C12.552696,7.9735192 12.8219068,7.97207828 13.0393641,8.09889615 Z" id="skip-back" transform="translate(19.617792, 12.500000) rotate(-180.000000) translate(-19.617792, -12.500000) "></path>
            </g>
        </g>
    </g>
</svg>