<?xml version="1.0" encoding="UTF-8"?>
<svg width="16px" height="16px" viewBox="0 0 16 16" version="1.1" xmlns="http://www.w3.org/2000/svg" xmlns:xlink="http://www.w3.org/1999/xlink">
    <!-- Generator: Sketch 47.1 (45422) - http://www.bohemiancoding.com/sketch -->
    <title>video</title>
    <desc>Created with Sketch.</desc>
    <defs></defs>
    <g id="ioGates-Desktop" stroke="none" stroke-width="1" fill="none" fill-rule="evenodd">
        <g id="File-View-Copy" transform="translate(-111.000000, -214.000000)" fill-rule="nonzero" fill="#DF522A">
            <g id="Group-8" transform="translate(96.000000, 72.000000)">
                <g id="Group-2-Copy" transform="translate(15.000000, 130.000000)">
                    <path d="M6.45947942e-16,26.5454545 L6.45947942e-16,13.4545455 C6.45947942e-16,12.6512222 0.651222182,12 1.45454545,12 L14.5454545,12 C15.3487778,12 16,12.6512222 16,13.4545455 L16,26.5454545 C16,27.3487778 15.3487778,28 14.5454545,28 L1.45454545,28 C0.651222182,28 0,27.3487778 6.45947942e-16,26.5454545 Z M2.90909091,13.8181818 C2.90909091,13.617351 2.74628536,13.4545455 2.54545455,13.4545455 L1.45454545,13.4545455 C1.25371464,13.4545455 1.09090909,13.617351 1.09090909,13.8181818 L1.09090909,14.5454545 C1.09090909,14.7462854 1.25371464,14.9090909 1.45454545,14.9090909 L2.54545455,14.9090909 C2.74628536,14.9090909 2.90909091,14.7462854 2.90909091,14.5454545 L2.90909091,13.8181818 Z M2.90909091,16.7272727 C2.90909091,16.5264419 2.74628536,16.3636364 2.54545455,16.3636364 L1.45454545,16.3636364 C1.25371464,16.3636364 1.09090909,16.5264419 1.09090909,16.7272727 L1.09090909,17.4545455 C1.09090909,17.6553763 1.25371464,17.8181818 1.45454545,17.8181818 L2.54545455,17.8181818 C2.74628536,17.8181818 2.90909091,17.6553763 2.90909091,17.4545455 L2.90909091,16.7272727 Z M2.90909091,19.6363636 C2.90909091,19.4355328 2.74628536,19.2727273 2.54545455,19.2727273 L1.45454545,19.2727273 C1.25371464,19.2727273 1.09090909,19.4355328 1.09090909,19.6363636 L1.09090909,20.3636364 C1.09090909,20.5644672 1.25371464,20.7272727 1.45454545,20.7272727 L2.54545455,20.7272727 C2.74628536,20.7272727 2.90909091,20.5644672 2.90909091,20.3636364 L2.90909091,19.6363636 Z M2.90909091,22.5454545 C2.90909091,22.3446237 2.74628536,22.1818182 2.54545455,22.1818182 L1.45454545,22.1818182 C1.25371464,22.1818182 1.09090909,22.3446237 1.09090909,22.5454545 L1.09090909,23.2727273 C1.09090909,23.4735581 1.25371464,23.6363636 1.45454545,23.6363636 L2.54545455,23.6363636 C2.74628536,23.6363636 2.90909091,23.4735581 2.90909091,23.2727273 L2.90909091,22.5454545 Z M13.0909091,26.1818182 C13.0909091,26.382649 13.2537146,26.5454545 13.4545455,26.5454545 L14.5454545,26.5454545 C14.7462854,26.5454545 14.9090909,26.382649 14.9090909,26.1818182 L14.9090909,25.4545455 C14.9090909,25.2537146 14.7462854,25.0909091 14.5454545,25.0909091 L13.4545455,25.0909091 C13.2537146,25.0909091 13.0909091,25.2537146 13.0909091,25.4545455 L13.0909091,26.1818182 Z M13.0909091,23.2727273 C13.0909091,23.4735581 13.2537146,23.6363636 13.4545455,23.6363636 L14.5454545,23.6363636 C14.7462854,23.6363636 14.9090909,23.4735581 14.9090909,23.2727273 L14.9090909,22.5454545 C14.9090909,22.3446237 14.7462854,22.1818182 14.5454545,22.1818182 L13.4545455,22.1818182 C13.2537146,22.1818182 13.0909091,22.3446237 13.0909091,22.5454545 L13.0909091,23.2727273 Z M13.0909091,20.3636364 C13.0909091,20.5644672 13.2537146,20.7272727 13.4545455,20.7272727 L14.5454545,20.7272727 C14.7462854,20.7272727 14.9090909,20.5644672 14.9090909,20.3636364 L14.9090909,19.6363636 C14.9090909,19.4355328 14.7462854,19.2727273 14.5454545,19.2727273 L13.4545455,19.2727273 C13.2537146,19.2727273 13.0909091,19.4355328 13.0909091,19.6363636 L13.0909091,20.3636364 Z M13.0909091,17.4545455 C13.0909091,17.6553763 13.2537146,17.8181818 13.4545455,17.8181818 L14.5454545,17.8181818 C14.7462854,17.8181818 14.9090909,17.6553763 14.9090909,17.4545455 L14.9090909,16.7272727 C14.9090909,16.5264419 14.7462854,16.3636364 14.5454545,16.3636364 L13.4545455,16.3636364 C13.2537146,16.3636364 13.0909091,16.5264419 13.0909091,16.7272727 L13.0909091,17.4545455 Z M13.0909091,14.5454545 C13.0909091,14.7462854 13.2537146,14.9090909 13.4545455,14.9090909 L14.5454545,14.9090909 C14.7462854,14.9090909 14.9090909,14.7462854 14.9090909,14.5454545 L14.9090909,13.8181818 C14.9090909,13.617351 14.7462854,13.4545455 14.5454545,13.4545455 L13.4545455,13.4545455 C13.2537146,13.4545455 13.0909091,13.617351 13.0909091,13.8181818 L13.0909091,14.5454545 Z M4,26.1818182 C4,26.382649 4.16280555,26.5454545 4.36363636,26.5454545 L11.6363636,26.5454545 C11.8371945,26.5454545 12,26.382649 12,26.1818182 L12,21.0909091 C12,20.8900783 11.8371945,20.7272727 11.6363636,20.7272727 L4.36363636,20.7272727 C4.16280555,20.7272727 4,20.8900783 4,21.0909091 L4,26.1818182 Z M4,18.9090909 C4,19.1099217 4.16280555,19.2727273 4.36363636,19.2727273 L11.6363636,19.2727273 C11.8371945,19.2727273 12,19.1099217 12,18.9090909 L12,13.8181818 C12,13.617351 11.8371945,13.4545455 11.6363636,13.4545455 L4.36363636,13.4545455 C4.16280555,13.4545455 4,13.617351 4,13.8181818 L4,18.9090909 Z M2.90909091,26.1818182 L2.90909091,25.4545455 C2.90909091,25.2537146 2.74628536,25.0909091 2.54545455,25.0909091 L1.45454545,25.0909091 C1.25371464,25.0909091 1.09090909,25.2537146 1.09090909,25.4545455 L1.09090909,26.1818182 C1.09090909,26.382649 1.25371464,26.5454545 1.45454545,26.5454545 L2.54545455,26.5454545 C2.74628536,26.5454545 2.90909091,26.382649 2.90909091,26.1818182 Z" id="video"></path>
                </g>
            </g>
        </g>
    </g>
</svg>